<svg width="233" height="105" viewBox="0 0 233 105" fill="none" xmlns="http://www.w3.org/2000/svg">
<path d="M232.5 97.0422C213 104.376 164.5 111.742 126.5 82.5422" stroke="black"/>
<circle r="27" transform="matrix(-1 0 0 1 94.5 53.5422)" fill="#111111"/>
<path d="M50 19.5421C43.5 10.8755 24.4 -4.55786 0 3.04214" stroke="black"/>
<path d="M70.1221 45.078C70.6009 43.8839 70.9045 41.2083 68.2888 40.0583C65.6731 38.9083 63.6598 41.0369 62.9801 42.245C63.0165 41.2332 62.6162 38.9094 60.7237 37.709C58.8312 36.5086 56.9987 38.6246 56.319 39.8327C56.0412 38.6409 54.9229 36.4479 52.6712 37.2104C50.4195 37.9729 49.2767 39.3795 49.3215 40.0829" stroke="black"/>
<rect width="6" height="6" rx="1" transform="matrix(-0.896878 -0.442279 -0.442279 0.896878 74.6523 16.6272)" stroke="black"/>
<path d="M128.202 72.4801C130.411 71.3575 135.189 69.57 136.633 71.4015C138.077 73.233 131.614 72.8837 128.202 72.4801Z" fill="#111111"/>
<path d="M93.5007 65.5416C99.6674 63.0416 111.231 55.7697 105.001 49.5416C101 45.542 96.0002 48.7083 94.9999 52.5416C94.8333 49.5417 92.8524 41.8949 87.5001 43.542C81 45.5422 86.8334 55.8756 89.5 62.0422" stroke="#FFF8EF"/>
</svg>
